<svg xmlns="http://www.w3.org/2000/svg" xmlns:xlink="http://www.w3.org/1999/xlink" width="82" height="82" viewBox="0 0 82 82">
  <defs>
    <clipPath id="clip-path">
      <rect id="Rectangle_407838" data-name="Rectangle 407838" width="47.579" height="47.577" fill="none"/>
    </clipPath>
  </defs>
  <g id="Group_1117941" data-name="Group 1117941" transform="translate(3939.051 4187.911)">
    <g id="Group_1116956" data-name="Group 1116956" transform="translate(-3949.202 -4197.97)">
      <g id="Ellipse_157" data-name="Ellipse 157" transform="translate(15.151 15.059)" fill="#fff" stroke="#ffce79" stroke-linejoin="round" stroke-width="5">
        <circle cx="36" cy="36" r="36" stroke="none"/>
        <circle cx="36" cy="36" r="38.5" fill="none"/>
      </g>
    </g>
    <g id="Group_1116961" data-name="Group 1116961" transform="translate(-3922.34 -4173.383)">
      <g id="Group_1113964" data-name="Group 1113964" transform="translate(0 0)" clip-path="url(#clip-path)">
        <path id="Path_907585" data-name="Path 907585" d="M18.948,19.442a5.631,5.631,0,0,0-5.6-3.7A5.633,5.633,0,0,0,3.22,19.431a5.632,5.632,0,0,0-.24,8.82,5.632,5.632,0,0,0,7.472,6.271l7.057-2.569A5.632,5.632,0,0,0,19.2,22.347a5.6,5.6,0,0,0-.254-2.9" transform="translate(-0.268 -3.738)" fill="#a4c422"/>
        <path id="Path_907586" data-name="Path 907586" d="M21.991,25.352a5.6,5.6,0,0,0-1.673-2.388,5.631,5.631,0,0,0-5.853-6.6,5.53,5.53,0,0,0-.565-.643,11.7,11.7,0,0,1,1.439,5.64A11.758,11.758,0,0,1,4.993,33.029a5.634,5.634,0,0,0,6.575,2.11l7.057-2.569a5.632,5.632,0,0,0,3.366-7.219" transform="translate(-1.383 -4.355)" fill="#97bf26"/>
        <path id="Path_907587" data-name="Path 907587" d="M46.46,9.412H43.644V2.372a1.408,1.408,0,1,1,2.816,0Z" transform="translate(-12.092 -0.267)" fill="#a4c422"/>
        <path id="Path_907588" data-name="Path 907588" d="M46.38,12.445a4.9,4.9,0,1,0-9.807,0c-.027,4.594-4.24,3.547-5.449,9.13-.891,4.117,3.415,7.628,7.628,7.628a7.628,7.628,0,0,0,7.628-7.628Z" transform="translate(-8.591 -2.089)" fill="#774d99"/>
        <path id="Path_907589" data-name="Path 907589" d="M46.38,24.038V17.256a6.518,6.518,0,0,0-4.949,2.692,11.268,11.268,0,0,0-5.062-3.516c-.86,2.909-4.191,2.744-5.243,7.606-.891,4.117,3.414,7.628,7.627,7.628a7.628,7.628,0,0,0,7.628-7.628" transform="translate(-8.591 -4.553)" fill="#673a8e"/>
        <path id="Path_907590" data-name="Path 907590" d="M29.67,19.4a9.459,9.459,0,0,1,1.648.145,9.234,9.234,0,0,1,1.585.427,8.813,8.813,0,0,1,1.46.694,8.3,8.3,0,0,1,1.28.933A7.8,7.8,0,0,1,36.7,22.738a7.315,7.315,0,0,1,.781,1.3,6.882,6.882,0,0,1,.48,1.409,6.679,6.679,0,0,1,0,2.93,6.9,6.9,0,0,1-.48,1.409,7.284,7.284,0,0,1-.781,1.3,7.768,7.768,0,0,1-1.051,1.139,8.3,8.3,0,0,1-1.28.933,8.813,8.813,0,0,1-1.46.694,9.233,9.233,0,0,1-1.585.427,9.468,9.468,0,0,1-3.3,0,9.233,9.233,0,0,1-1.585-.427,8.813,8.813,0,0,1-1.46-.694,8.3,8.3,0,0,1-1.28-.933,7.723,7.723,0,0,1-1.05-1.139,7.2,7.2,0,0,1-.781-1.3,6.856,6.856,0,0,1-.481-1.409,6.679,6.679,0,0,1,0-2.93,6.842,6.842,0,0,1,.481-1.409,7.23,7.23,0,0,1,.781-1.3A7.755,7.755,0,0,1,23.7,21.6a8.3,8.3,0,0,1,1.28-.933,8.813,8.813,0,0,1,1.46-.694,9.234,9.234,0,0,1,1.585-.427A9.459,9.459,0,0,1,29.67,19.4" transform="translate(-5.88 -5.375)" fill="#eb4536"/>
        <path id="Path_907591" data-name="Path 907591" d="M35.759,22.579c.013.171.02.344.02.519,0,4.147-3.782,7.509-8.448,7.509a8.961,8.961,0,0,1-6.081-2.3c.3,3.905,3.958,6.991,8.428,6.991,4.665,0,8.448-3.362,8.448-7.51a7.074,7.074,0,0,0-2.367-5.212" transform="translate(-5.888 -6.256)" fill="#ea3422"/>
        <path id="Path_907592" data-name="Path 907592" d="M32.154,17.238l.075-2.254a.751.751,0,0,0-.75-.776H30.215a.752.752,0,0,0-.75.776l.075,2.254a.935.935,0,0,1-.733.946,8.859,8.859,0,0,0-3.339,1.5l3.034.367a1.41,1.41,0,0,1,.737.32l.7.59a1.407,1.407,0,0,0,1.81,0l.7-.59a1.41,1.41,0,0,1,.737-.32l3.034-.367a8.859,8.859,0,0,0-3.339-1.5.936.936,0,0,1-.733-.946" transform="translate(-7.056 -3.936)" fill="#a4c422"/>
        <path id="Path_907593" data-name="Path 907593" d="M55.521,21.165s4.373.974,5.84-1.6a2.676,2.676,0,0,0-.185-2.934,2.675,2.675,0,0,0-4.633-2.643,2.677,2.677,0,0,0-2.619,1.334c-1.467,2.571,1.6,5.84,1.6,5.84" transform="translate(-14.83 -3.552)" fill="#a4c422"/>
        <path id="Path_907594" data-name="Path 907594" d="M61.391,17.049a2.676,2.676,0,0,0-.27-2.733A6.15,6.15,0,0,1,54.3,19.452a9.489,9.489,0,0,0,1.433,2.127s4.373.974,5.84-1.6a2.677,2.677,0,0,0-.185-2.934" transform="translate(-15.045 -3.966)" fill="#97bf26"/>
        <path id="Path_907595" data-name="Path 907595" d="M45.6,23.746,39.579,38.22a3.19,3.19,0,0,0,5.5,3.138l9.4-12.547a3.718,3.718,0,0,0-1.134-5.458l-2.467-1.408a3.718,3.718,0,0,0-5.275,1.8" transform="translate(-10.898 -5.944)" fill="#f46f0f"/>
        <path id="Path_907596" data-name="Path 907596" d="M53.375,23.923l-.708-.4a3.711,3.711,0,0,1-.516,3.5l-9.4,12.547a3.192,3.192,0,0,1-3.3,1.19,3.19,3.19,0,0,0,5.656,1.168l9.4-12.547a3.718,3.718,0,0,0-1.134-5.458" transform="translate(-10.932 -6.516)" fill="#e16515"/>
        <path id="Path_907597" data-name="Path 907597" d="M46.21,46.028H1.9a.939.939,0,0,1-.939-.938V38.519A.939.939,0,0,1,1.9,37.58H46.21a.939.939,0,0,1,.939.939V45.09a.939.939,0,0,1-.939.938" transform="translate(-0.267 -10.412)" fill="#e39b78"/>
        <path id="Path_907598" data-name="Path 907598" d="M46.21,61.609H1.9a.939.939,0,0,1-.939-.938V54.1a.939.939,0,0,1,.939-.939H46.21a.939.939,0,0,1,.939.939v6.571a.939.939,0,0,1-.939.938" transform="translate(-0.267 -14.729)" fill="#e39b78"/>
        <path id="Path_907599" data-name="Path 907599" d="M62.759,46.028H60.694V37.58h2.065a.939.939,0,0,1,.939.939V45.09a.939.939,0,0,1-.939.938" transform="translate(-16.816 -10.412)" fill="#db855f"/>
        <path id="Path_907600" data-name="Path 907600" d="M62.759,61.609H60.694V53.161h2.065a.939.939,0,0,1,.939.939v6.57a.939.939,0,0,1-.939.939" transform="translate(-16.816 -14.729)" fill="#db855f"/>
        <rect id="Rectangle_407837" data-name="Rectangle 407837" width="43.18" height="2.816" transform="translate(2.2 35.616)" fill="#cf6837"/>
        <path id="Path_907601" data-name="Path 907601" d="M46.185,34.677a.241.241,0,0,1-.241.241H1.637a.241.241,0,0,1-.241-.241V28.106a.242.242,0,0,1,.241-.241H5.961a.7.7,0,1,0,0-1.394H3.422A4.852,4.852,0,0,1,3.4,24.636a.7.7,0,0,0-.239-.657,4.934,4.934,0,0,1,.21-7.727.7.7,0,0,0,.278-.6,4.936,4.936,0,0,1,8.877-3.232.7.7,0,0,0,.6.278,4.919,4.919,0,0,1,4.649,2.656,7.848,7.848,0,0,0-3.124,6.177,7.672,7.672,0,0,0,1.838,4.935H14.009l-.429-1.063V19.169a.7.7,0,1,0-1.394,0v2.784l-.959-2.377V14.965a.7.7,0,1,0-1.394,0v1.156l-1.1-2.731a.7.7,0,1,0-1.292.522l2.078,5.149L8.351,17.955a.7.7,0,1,0-.959,1.011l3.382,3.211L11.7,24.47,8.984,21.9a.7.7,0,1,0-.957,1.013l3.76,3.554H9.214a.7.7,0,1,0,0,1.394h36.73a.242.242,0,0,1,.241.241Zm-1.5,3.058H2.9V36.312H44.683ZM21.9,14.929a1.632,1.632,0,0,0,1.28-1.65L23.1,11.024a.054.054,0,0,1,.054-.056h1.263a.054.054,0,0,1,.054.056L24.4,13.278a1.633,1.633,0,0,0,1.28,1.65,8.453,8.453,0,0,1,1.26.383l-.889.108a2.1,2.1,0,0,0-1.1.478l-.7.59a.711.711,0,0,1-.915,0l-.7-.591a2.1,2.1,0,0,0-1.1-.477l-.889-.108a8.369,8.369,0,0,1,1.26-.383m9.642,6.607a6.457,6.457,0,0,1-2.412,4.935H18.45a6.266,6.266,0,0,1,.16-10l2.752.333a.712.712,0,0,1,.372.161l.7.59a2.1,2.1,0,0,0,2.707,0l.7-.59a.707.707,0,0,1,.372-.161l2.752-.333a6.463,6.463,0,0,1,2.571,5.065m3.8-3.466a3.017,3.017,0,0,1,2.506-1.847h.021a3.014,3.014,0,0,1,1.76.384L42.1,18.013a3.021,3.021,0,0,1,.921,4.435l-3.013,4.023H31.85Zm4.356-5.95a1.976,1.976,0,0,1,1.937-.987.7.7,0,0,0,.654-.3,1.978,1.978,0,0,1,3.425,1.954.7.7,0,0,0,.073.716,1.978,1.978,0,0,1,.137,2.17,3.214,3.214,0,0,1-2.724,1.4,4.371,4.371,0,0,0-.412-.267l-.629-.359,1.515-2.656a.7.7,0,0,0-1.211-.69l-1.515,2.655-.629-.359a4.36,4.36,0,0,0-.44-.218,3.213,3.213,0,0,1-.181-3.057M32.249,2.1a.711.711,0,0,1,1.423,0V4.81a5.541,5.541,0,0,0-1.423-.017ZM45.943,26.471h-4.2l2.386-3.187a4.408,4.408,0,0,0,.209-4.988,4.159,4.159,0,0,0,2.793-1.934A3.369,3.369,0,0,0,47.126,13a3.372,3.372,0,0,0-5.742-3.276,3.372,3.372,0,0,0-2.9,1.7h0V10.355a5.591,5.591,0,0,0-.153-1.3.7.7,0,0,0-1.356.323,4.24,4.24,0,0,1,.115.98v4.584c-.13.032-.26.068-.387.111a4.416,4.416,0,0,0-2.65,2.483l-1.2,2.895a8,8,0,0,0-3.268-5.243l0,0a9.428,9.428,0,0,0-2.227-1.2,5,5,0,0,0,1.324-3.619,4.214,4.214,0,0,1,5.433-4.031.634.634,0,0,0,.082.027,4.188,4.188,0,0,1,1.291.691.7.7,0,1,0,.862-1.1,5.6,5.6,0,0,0-1.282-.758V2.1a2.1,2.1,0,0,0-4.21,0V5.141a5.647,5.647,0,0,0-3.57,5.21A3.738,3.738,0,0,1,25.859,13.5a.241.241,0,0,1-.065-.172l.075-2.254a1.447,1.447,0,0,0-1.447-1.5H23.159a1.447,1.447,0,0,0-1.447,1.5l.075,2.255a.239.239,0,0,1-.186.242,9.743,9.743,0,0,0-2.666,1.014A6.307,6.307,0,0,0,13.411,11.3a6.391,6.391,0,0,0-2.989-1.968,6.328,6.328,0,0,0-7.151,2.6,6.392,6.392,0,0,0-1.024,3.43A6.4,6.4,0,0,0,.278,18.353,6.326,6.326,0,0,0,1.97,24.784a6.312,6.312,0,0,0,.038,1.687h-.37A1.638,1.638,0,0,0,0,28.106v6.571a1.637,1.637,0,0,0,1.5,1.629v1.436A1.636,1.636,0,0,0,0,39.371v6.57a1.638,1.638,0,0,0,1.636,1.636H37.069a.7.7,0,1,0,0-1.394H1.637a.242.242,0,0,1-.241-.242v-6.57a.242.242,0,0,1,.241-.242H45.943a.242.242,0,0,1,.241.242v6.57a.242.242,0,0,1-.241.242H40.322a.7.7,0,1,0,0,1.394h5.622a1.638,1.638,0,0,0,1.635-1.636v-6.57a1.636,1.636,0,0,0-1.5-1.629V36.306a1.636,1.636,0,0,0,1.5-1.629V28.106a1.637,1.637,0,0,0-1.635-1.635" transform="translate(0 0)" fill="#1a1818"/>
        <path id="Path_907602" data-name="Path 907602" d="M60.688,40.511a.7.7,0,1,1-.493.2.672.672,0,0,1,.493-.2" transform="translate(-16.621 -11.224)" fill="#1a1818"/>
        <path id="Path_907603" data-name="Path 907603" d="M60.688,44.406a.7.7,0,1,1-.493.2.672.672,0,0,1,.493-.2" transform="translate(-16.621 -12.303)" fill="#1a1818"/>
        <path id="Path_907604" data-name="Path 907604" d="M4.595,40.511a.7.7,0,1,1-.493.2.672.672,0,0,1,.493-.2" transform="translate(-1.08 -11.224)" fill="#1a1818"/>
        <path id="Path_907605" data-name="Path 907605" d="M4.595,44.406a.7.7,0,1,1-.493.2.672.672,0,0,1,.493-.2" transform="translate(-1.08 -12.303)" fill="#1a1818"/>
        <path id="Path_907606" data-name="Path 907606" d="M60.688,56.093a.7.7,0,1,1-.493.2.672.672,0,0,1,.493-.2" transform="translate(-16.621 -15.541)" fill="#1a1818"/>
        <path id="Path_907607" data-name="Path 907607" d="M60.688,59.988a.7.7,0,1,1-.493.2.672.672,0,0,1,.493-.2" transform="translate(-16.621 -16.62)" fill="#1a1818"/>
        <path id="Path_907608" data-name="Path 907608" d="M4.595,56.093a.7.7,0,1,1-.493.2.672.672,0,0,1,.493-.2" transform="translate(-1.08 -15.541)" fill="#1a1818"/>
        <path id="Path_907609" data-name="Path 907609" d="M4.595,59.988a.7.7,0,1,1-.493.2.672.672,0,0,1,.493-.2" transform="translate(-1.08 -16.62)" fill="#1a1818"/>
      </g>
    </g>
  </g>
</svg>
